<?xml version="1.0" encoding="UTF-8" standalone="no"?>
<!-- Created with Inkscape (http://www.inkscape.org/) -->

<svg
   width="723"
   height="610"
   viewBox="0 0 723 610"
   version="1.1"
   id="svg1"
   xml:space="preserve"
   xmlns="http://www.w3.org/2000/svg"
   xmlns:svg="http://www.w3.org/2000/svg"><defs
     id="defs1" /><g
     id="layer1"><path
       style="fill:#ffffff;stroke-width:1.16082"
       d="m 697.49621,200.62159 c 11.82446,-4.26536 11.49654,-4.09261 10.58036,-5.57501 -0.61808,-1.00008 -5.23122,0.36003 -21.31798,6.28536 -5.12892,1.88917 -6.89213,4.65209 -2.3216,3.63787 1.43649,-0.31876 7.31315,-2.27547 13.05922,-4.34822 z"
       id="path7" /><path
       style="fill:#ffffff;stroke-width:1.16082"
       d="m 600.32992,308.92529 c 11.94214,-10.6702 26.96277,-24.12119 33.37919,-29.89109 6.41645,-5.76991 15.80454,-14.14736 20.86251,-18.61651 5.05796,-4.46914 12.34504,-11.00023 16.19348,-14.51351 3.84842,-3.51329 17.05964,-15.21616 29.35826,-26.00641 12.29861,-10.79023 22.17466,-19.80508 21.94669,-20.03299 -0.22791,-0.22791 -7.93968,2.76143 -17.13739,6.64297 -15.461,6.52476 -44.93591,18.35512 -70.12076,28.14438 -30.12447,11.70925 -82.9722,32.0484 -86.77129,33.39508 -2.39419,0.84863 -4.33534,1.82988 -4.31367,2.18043 0.0217,0.35061 7.58766,4.81639 16.8133,9.92398 l 16.77386,9.28657 0.0186,19.44376 c 0.0107,10.69403 0.30335,19.4437 0.6514,19.4437 0.34805,0 10.40365,-8.73014 22.3458,-19.40036 z"
       id="path4" /><path
       style="fill:#ffffff;stroke-width:1.16082"
       d="m 555.82635,313.36357 9.94008,-9.73837 -2.0431,-3.10074 c -7.89828,-11.98689 -18.43968,-26.68146 -19.16518,-26.71596 -0.47884,-0.0227 -0.87062,11.23311 -0.87062,25.01297 0,15.26762 0.42944,24.90323 1.09936,24.66744 0.60465,-0.21286 5.5724,-4.76922 11.03946,-10.12534 z"
       id="path5" /><path
       id="path6"
       style="fill:#ffffff;stroke-width:1.16082"
       d="m 636.47935,137.54148 c -13.54324,0.20614 -26.63909,7.76236 -33.54688,21.58608 -1.9385,3.87931 -3.52563,7.78608 -3.52563,8.68115 0,3.48852 -8.61715,19.0395 -14.50502,26.17761 -11.70474,14.19023 -22.64617,19.83673 -69.35972,35.78552 -11.96891,4.08639 -21.60391,7.91097 -21.4097,8.49976 0.19425,0.58878 4.76433,3.50695 10.15452,6.48476 15.28844,8.44627 27.19897,14.99368 27.3578,15.03921 0.0796,0.0228 11.83249,-4.17906 26.11796,-9.33708 14.28547,-5.15796 34.0688,-12.24219 43.96476,-15.74483 9.89598,-3.5026 22.17319,-7.8756 27.28077,-9.71721 5.10761,-1.84162 15.29243,-5.41265 22.6346,-7.93328 7.34219,-2.52064 14.26479,-4.95356 15.38207,-5.40647 1.63382,-0.66227 2.0324,-0.21301 2.0324,2.28583 0,2.55807 0.46089,3.04093 2.6113,2.73552 l 2.61128,-0.37269 c 0,0 10e-4,-17.02438 0,-25.53658 -10e-4,-8.51534 0.35815,-17.14 -0.89934,-25.32293 -0.18506,-1.2042 -0.96885,-3.56002 -0.96885,-3.56002 l -1.35928,-3.22537 c -1.77471,-3.61396 -5.36768,-8.50755 -7.98546,-10.87256 -7.84522,-7.08769 -17.32111,-10.38748 -26.58758,-10.24642 z m 23.53649,21.6482 c 3.6788,5.8e-4 6.66088,3.05821 6.66119,6.83013 0.001,3.77289 -2.98144,6.83213 -6.66119,6.83262 -3.67972,-5.8e-4 -6.66219,-3.05974 -6.66115,-6.83262 3.1e-4,-3.77192 2.98237,-6.82964 6.66115,-6.83013 z m -22.11281,0.29069 c 3.67976,-9.9e-4 6.66335,3.05722 6.66366,6.83014 -3e-4,3.7729 -2.9839,6.83104 -6.66366,6.83012 -3.6788,-5.6e-4 -6.66088,-3.05821 -6.66117,-6.83012 3e-4,-3.77192 2.98237,-6.82965 6.66117,-6.83014 z" /></g><text
     xml:space="preserve"
     style="font-style:normal;font-variant:normal;font-weight:normal;font-stretch:normal;font-size:164.249px;font-family:Coolvetica;-inkscape-font-specification:Coolvetica;fill:#ffffff;fill-opacity:1;stroke-width:0.269715"
     x="-1.2504023"
     y="340.81863"
     id="text9"><tspan
       id="tspan9"
       x="-1.2504023"
       y="340.81863"
       style="font-size:164.249px;fill:#ffffff;stroke-width:0.269715">sendme</tspan></text></svg>


